<svg width="256" height="157" viewBox="0 0 256 157" fill="none" xmlns="http://www.w3.org/2000/svg">
<g filter="url(#filter0_d_352_27341)">
<g filter="url(#filter1_d_352_27341)">
<path d="M50.8034 134.662L44.3592 138.382L40.2773 135.978L46.68 132.281C48.5448 131.205 49.6983 130.068 50.1403 128.872C50.5962 127.668 50.3821 126.444 49.498 125.2C48.6277 123.948 47.1427 122.716 45.043 121.503L43.4061 120.558C41.7761 119.617 40.146 118.892 38.516 118.381C36.8998 117.863 35.3043 117.564 33.7295 117.484C32.1686 117.396 30.649 117.524 29.171 117.867C27.7067 118.202 26.3046 118.756 24.9647 119.53L18.2097 123.429L14.0656 121.037L20.8205 117.137C22.8235 115.981 24.9923 115.119 27.3268 114.553C29.6475 113.979 32.0373 113.708 34.4962 113.74C36.9689 113.764 39.407 114.095 41.8106 114.733C44.2142 115.371 46.5004 116.316 48.6692 117.568L50.2647 118.489C52.4334 119.741 54.0704 121.061 55.1755 122.448C56.2806 123.836 56.8538 125.244 56.8953 126.671C56.9229 128.091 56.4325 129.482 55.4241 130.846C54.4157 132.194 52.8755 133.466 50.8034 134.662ZM17.0701 119.302L47.2394 136.719L42.0385 139.722L11.8692 122.305L17.0701 119.302ZM77.4088 114.111L66.7169 107.938C65.9157 107.476 65.08 107.161 64.2097 106.993C63.3394 106.826 62.4484 106.822 61.5367 106.981C60.6388 107.133 59.7478 107.464 58.8637 107.974C58.0487 108.445 57.4824 108.931 57.1647 109.433C56.8469 109.936 56.7571 110.418 56.8953 110.881C57.0334 111.343 57.3995 111.746 57.9935 112.089L53.0205 114.96C52.1364 114.45 51.4941 113.832 51.0935 113.106C50.6929 112.38 50.5755 111.595 50.7412 110.749C50.907 109.904 51.3698 109.047 52.1295 108.177C52.8893 107.308 53.9737 106.467 55.3827 105.653C57.068 104.68 58.843 103.983 60.7079 103.56C62.5866 103.129 64.4722 103.03 66.3646 103.261C68.2571 103.476 70.0598 104.078 71.7728 105.067L81.7394 110.821C82.7616 111.411 83.7493 111.902 84.7025 112.292C85.6556 112.667 86.5673 112.946 87.4376 113.13L87.7691 113.321L82.6511 116.276C81.8776 116.1 81.0073 115.813 80.0403 115.415C79.0734 115 78.1962 114.565 77.4088 114.111ZM68.9962 108.417L72.125 110.175L68.5403 112.245C67.6148 112.779 66.8896 113.301 66.3646 113.812C65.8259 114.314 65.4875 114.797 65.3493 115.259C65.2112 115.722 65.2595 116.156 65.4944 116.563C65.7292 116.97 66.1436 117.344 66.7376 117.687C67.3316 118.03 68.0154 118.266 68.789 118.393C69.5487 118.513 70.3292 118.501 71.1304 118.357C71.9454 118.206 72.7328 117.911 73.4926 117.472C74.5148 116.882 75.1986 116.248 75.5439 115.57C75.8893 114.876 75.9791 114.226 75.8133 113.62C75.6337 113.006 75.2815 112.532 74.7565 112.197L78.5899 112.544C78.9905 112.966 79.3151 113.481 79.5637 114.087C79.8124 114.693 79.9091 115.355 79.8538 116.072C79.7986 116.774 79.5085 117.492 78.9836 118.226C78.4725 118.951 77.6367 119.649 76.4764 120.319C75.0121 121.164 73.4166 121.751 71.6899 122.078C69.9493 122.397 68.2571 122.456 66.6133 122.257C64.9556 122.05 63.4914 121.579 62.2205 120.845C61.0325 120.16 60.2037 119.426 59.734 118.644C59.2643 117.847 59.1538 117.018 59.4025 116.156C59.6649 115.287 60.2728 114.394 61.2259 113.477C62.1652 112.552 63.4499 111.619 65.08 110.678L68.9962 108.417ZM98.6475 100.031C98.1502 99.744 97.577 99.5566 96.9277 99.4689C96.2646 99.3732 95.4151 99.433 94.3791 99.6483C93.3568 99.8557 92.0307 100.27 90.4007 100.892C88.9502 101.427 87.5481 101.877 86.1944 102.244C84.8406 102.595 83.549 102.822 82.3196 102.926C81.0902 103.03 79.9229 102.986 78.8178 102.794C77.7127 102.603 76.6905 102.236 75.7511 101.694C74.8394 101.168 74.1764 100.553 73.7619 99.8517C73.3475 99.1499 73.2025 98.4043 73.3268 97.6148C73.4511 96.8253 73.8655 96.0198 74.5701 95.1984C75.2884 94.369 76.3106 93.5715 77.6367 92.8059C79.5154 91.7214 81.4424 90.9757 83.4178 90.569C85.3932 90.1463 87.2788 90.0387 89.0746 90.246C90.8565 90.4454 92.4175 90.9319 93.7574 91.7054L88.7637 94.5883C88.1697 94.2454 87.4652 94.0141 86.6502 93.8945C85.8352 93.7589 84.9719 93.7709 84.0601 93.9304C83.1346 94.0819 82.2229 94.4169 81.325 94.9352C80.4685 95.4297 79.8953 95.9201 79.6052 96.4066C79.3151 96.8771 79.246 97.3157 79.398 97.7224C79.5637 98.1212 79.9022 98.4681 80.4133 98.7631C80.7863 98.9785 81.1938 99.134 81.6358 99.2297C82.0779 99.3094 82.5959 99.3214 83.1899 99.2656C83.77 99.2018 84.4607 99.0582 85.2619 98.8349C86.077 98.6036 87.037 98.2807 88.1421 97.866C90.2142 97.0844 92.1481 96.5023 93.9439 96.1195C95.7397 95.7207 97.4112 95.5852 98.9583 95.7128C100.492 95.8324 101.928 96.279 103.268 97.0525C104.263 97.6267 104.96 98.2767 105.361 99.0024C105.762 99.7121 105.865 100.474 105.672 101.287C105.465 102.093 104.967 102.914 104.18 103.751C103.406 104.581 102.329 105.394 100.948 106.192C98.9169 107.364 96.8379 108.15 94.7106 108.548C92.5694 108.939 90.5664 109.019 88.7016 108.787C86.8367 108.54 85.2896 108.062 84.0601 107.352L88.8881 104.565C89.8688 105.067 90.8634 105.346 91.8718 105.402C92.8803 105.442 93.8541 105.334 94.7935 105.079C95.7328 104.808 96.5755 104.457 97.3214 104.027C98.2193 103.508 98.8547 103.006 99.2277 102.519C99.5869 102.025 99.7181 101.566 99.6214 101.144C99.5109 100.713 99.1863 100.342 98.6475 100.031ZM87.0854 76.968L118.912 95.3419L113.939 98.2129L82.1124 79.8389L87.0854 76.968ZM106.003 88.8943L104.366 89.8154C102.833 88.9142 101.617 87.9652 100.72 86.9684C99.8355 85.9636 99.2899 84.9627 99.0827 83.9659C98.8755 82.9531 99.0481 81.9841 99.6007 81.059C100.139 80.126 101.065 79.2807 102.377 78.523C103.482 77.8851 104.629 77.3986 105.817 77.0637C107.019 76.7207 108.283 76.5573 109.609 76.5732C110.921 76.5812 112.282 76.8005 113.691 77.2311C115.1 77.6458 116.571 78.2958 118.104 79.181L132.505 87.4947L127.491 90.3896L113.048 82.0519C111.971 81.4299 110.956 81.0271 110.002 80.8437C109.063 80.6523 108.158 80.6483 107.288 80.8318C106.404 81.0072 105.534 81.3421 104.677 81.8366C103.779 82.3549 103.165 82.9172 102.833 83.5233C102.515 84.1214 102.439 84.7314 102.605 85.3535C102.771 85.9755 103.144 86.5896 103.724 87.1957C104.318 87.7938 105.078 88.36 106.003 88.8943ZM105.755 66.19L110.748 63.3071L137.789 78.9178L142.099 81.9562L137.582 84.564L105.755 66.19ZM145.787 66.6445L146.222 66.8958C147.88 67.8527 149.22 68.8416 150.242 69.8624C151.264 70.8672 151.914 71.88 152.19 72.9008C152.48 73.9136 152.363 74.8985 151.838 75.8555C151.313 76.7965 150.339 77.6777 148.916 78.4991C147.521 79.3046 146.043 79.8548 144.482 80.1499C142.921 80.445 141.305 80.5167 139.633 80.3652C137.975 80.2057 136.263 79.8628 134.494 79.3365C132.726 78.8101 130.944 78.1323 129.148 77.3029L127.76 76.5014C126.31 75.4567 125.136 74.428 124.238 73.4152C123.326 72.3944 122.732 71.4055 122.456 70.4485C122.179 69.4756 122.29 68.5426 122.787 67.6494C123.298 66.7482 124.245 65.8989 125.626 65.1014C127.063 64.272 128.603 63.7018 130.247 63.3908C131.904 63.0718 133.61 62.9961 135.365 63.1635C137.105 63.323 138.853 63.7018 140.607 64.3C142.375 64.8901 144.102 65.6716 145.787 66.6445ZM141.229 69.7787L140.793 69.5274C139.785 68.9453 138.756 68.4469 137.706 68.0322C136.642 67.6095 135.579 67.3144 134.515 67.147C133.465 66.9715 132.422 66.9596 131.386 67.1111C130.35 67.2466 129.356 67.5896 128.402 68.1398C127.518 68.6502 126.911 69.1766 126.579 69.7188C126.248 70.2611 126.13 70.8074 126.227 71.3577C126.323 71.9079 126.593 72.4542 127.035 72.9965C127.491 73.5308 128.078 74.0532 128.796 74.5635L132.547 76.7287C133.707 77.255 134.923 77.6538 136.193 77.9249C137.464 78.1801 138.735 78.2439 140.006 78.1163C141.263 77.9808 142.479 77.574 143.653 76.8962C144.578 76.3619 145.172 75.8036 145.435 75.2215C145.697 74.6393 145.684 74.0492 145.393 73.4511C145.103 72.837 144.592 72.2229 143.86 71.6089C143.142 70.9868 142.265 70.3768 141.229 69.7787ZM149.517 65.0177L149.04 64.7426C147.424 63.8095 146.16 62.8087 145.248 61.74C144.323 60.6634 143.791 59.5749 143.653 58.4743C143.515 57.3579 143.805 56.2653 144.523 55.1967C145.242 54.1121 146.416 53.0993 148.046 52.1583C149.69 51.2093 151.444 50.5314 153.309 50.1247C155.174 49.702 157.073 49.5306 159.007 49.6103C160.927 49.6821 162.82 49.9851 164.684 50.5195C166.535 51.0458 168.269 51.7755 169.885 52.7085L170.362 52.9837C171.978 53.9167 173.242 54.9176 174.154 55.9862C175.066 57.0548 175.59 58.1474 175.729 59.2639C175.853 60.3724 175.563 61.4649 174.858 62.5415C174.14 63.6101 172.966 64.615 171.336 65.556C169.692 66.505 167.938 67.1908 166.073 67.6135C164.208 68.0202 162.315 68.1877 160.395 68.1159C158.461 68.0362 156.569 67.7331 154.718 67.2068C152.867 66.6804 151.133 65.9507 149.517 65.0177ZM154.034 61.8597L154.511 62.1348C155.519 62.7169 156.576 63.2074 157.681 63.6061C158.786 64.0049 159.898 64.272 161.017 64.4076C162.136 64.5432 163.234 64.5232 164.311 64.3478C165.389 64.1724 166.404 63.8095 167.357 63.2592C168.283 62.7249 168.891 62.1507 169.181 61.5367C169.485 60.9146 169.519 60.2806 169.284 59.6347C169.05 58.9887 168.587 58.3467 167.896 57.7088C167.219 57.0628 166.377 56.4487 165.368 55.8666L164.892 55.5914C163.897 55.0173 162.847 54.5388 161.742 54.156C160.637 53.7572 159.511 53.4901 158.365 53.3545C157.232 53.211 156.127 53.2269 155.049 53.4024C153.972 53.5619 152.963 53.9127 152.024 54.455C151.085 54.9973 150.47 55.5835 150.18 56.2135C149.89 56.8275 149.869 57.4615 150.118 58.1155C150.366 58.7694 150.836 59.4154 151.527 60.0534C152.204 60.6834 153.039 61.2855 154.034 61.8597ZM193.652 47.0026L182.96 40.8301C182.159 40.3675 181.323 40.0525 180.453 39.885C179.583 39.7176 178.692 39.7136 177.78 39.8731C176.882 40.0246 175.991 40.3556 175.107 40.8659C174.292 41.3365 173.726 41.8229 173.408 42.3253C173.09 42.8277 173 43.3102 173.138 43.7728C173.277 44.2353 173.643 44.638 174.237 44.9809L169.264 47.8519C168.38 47.3415 167.737 46.7234 167.337 45.9977C166.936 45.272 166.819 44.4865 166.984 43.6412C167.15 42.7958 167.613 41.9386 168.373 41.0693C169.132 40.2 170.217 39.3587 171.626 38.5453C173.311 37.5723 175.086 36.8745 176.951 36.4519C178.83 36.0212 180.715 35.9216 182.608 36.1528C184.5 36.3681 186.303 36.9702 188.016 37.9591L197.983 43.713C199.005 44.3031 199.993 44.7935 200.946 45.1843C201.899 45.5591 202.811 45.8382 203.681 46.0217L204.012 46.2131L198.894 49.1677C198.121 48.9923 197.251 48.7052 196.284 48.3064C195.317 47.8918 194.439 47.4571 193.652 47.0026ZM185.239 41.3085L188.368 43.067L184.784 45.1365C183.858 45.6708 183.133 46.1931 182.608 46.7035C182.069 47.2059 181.731 47.6884 181.593 48.1509C181.454 48.6135 181.503 49.0481 181.738 49.4548C181.972 49.8615 182.387 50.2364 182.981 50.5793C183.575 50.9222 184.259 51.1574 185.032 51.285C185.792 51.4047 186.572 51.3927 187.374 51.2492C188.189 51.0976 188.976 50.8026 189.736 50.364C190.758 49.7738 191.442 49.1398 191.787 48.462C192.132 47.7681 192.222 47.1182 192.057 46.5121C191.877 45.8981 191.525 45.4236 191 45.0886L194.833 45.4355C195.234 45.8582 195.558 46.3726 195.807 46.9786C196.056 47.5847 196.152 48.2466 196.097 48.9644C196.042 49.6662 195.752 50.3839 195.227 51.1176C194.716 51.8433 193.88 52.5411 192.72 53.211C191.255 54.0563 189.66 54.6424 187.933 54.9694C186.193 55.2884 184.5 55.3482 182.857 55.1488C181.199 54.9415 179.735 54.471 178.464 53.7373C177.276 53.0515 176.447 52.3178 175.977 51.5363C175.508 50.7388 175.397 49.9094 175.646 49.0481C175.908 48.1789 176.516 47.2857 177.469 46.3686C178.408 45.4435 179.693 44.5104 181.323 43.5694L185.239 41.3085ZM195.248 30.3153L213.399 40.7942L208.405 43.6771L185.985 30.7339L190.751 27.9826L195.248 30.3153ZM197.693 23.8078L202.293 26.5113C201.933 26.6548 201.56 26.8223 201.174 27.0137C200.801 27.1971 200.441 27.3885 200.096 27.5879C199.24 28.0823 198.611 28.5887 198.211 29.1071C197.796 29.6175 197.596 30.1318 197.61 30.6502C197.623 31.1526 197.831 31.655 198.231 32.1574C198.632 32.6599 199.205 33.1503 199.951 33.6288L198.894 34.3346C197.485 33.5211 196.318 32.6878 195.393 31.8345C194.467 30.9812 193.825 30.1318 193.466 29.2865C193.12 28.4332 193.113 27.6158 193.445 26.8342C193.79 26.0447 194.522 25.327 195.641 24.681C195.945 24.5056 196.297 24.3341 196.698 24.1667C197.112 23.9912 197.444 23.8716 197.693 23.8078ZM232.006 24.693L204.82 8.99856L209.835 6.1037L241.662 24.4777L237.124 27.0974L232.006 24.693ZM211.099 29.4659L210.664 29.2147C208.965 28.2338 207.618 27.225 206.623 26.1883C205.615 25.1436 204.986 24.1108 204.738 23.0901C204.475 22.0613 204.62 21.0764 205.173 20.1354C205.711 19.1864 206.665 18.3171 208.032 17.5276C209.386 16.7461 210.836 16.2118 212.384 15.9247C213.931 15.6376 215.554 15.5698 217.253 15.7213C218.938 15.8649 220.672 16.2038 222.454 16.7381C224.222 17.2645 226.018 17.9503 227.841 18.7956L229.229 19.5971C230.652 20.6258 231.813 21.6466 232.711 22.6594C233.608 23.6722 234.182 24.6651 234.43 25.638C234.679 26.6109 234.548 27.548 234.037 28.4491C233.539 29.3423 232.607 30.1837 231.239 30.9732C229.886 31.7547 228.38 32.297 226.722 32.6C225.078 32.8951 223.366 32.9669 221.584 32.8154C219.802 32.6638 218.02 32.305 216.238 31.7388C214.442 31.1646 212.729 30.407 211.099 29.4659ZM215.657 26.3318L216.093 26.583C217.115 27.1732 218.158 27.6716 219.221 28.0783C220.299 28.4771 221.376 28.7562 222.454 28.9157C223.517 29.0672 224.56 29.0712 225.583 28.9276C226.605 28.7681 227.565 28.4292 228.463 27.9108C229.596 27.2569 230.279 26.5751 230.514 25.8653C230.749 25.1555 230.652 24.4378 230.224 23.7121C229.796 22.9704 229.133 22.2527 228.235 21.5589L224.484 19.3937C223.587 18.9711 222.654 18.6321 221.687 18.3769C220.734 18.1138 219.781 17.9543 218.828 17.8985C217.861 17.8347 216.914 17.9024 215.989 18.1018C215.063 18.2852 214.172 18.6242 213.316 19.1186C212.404 19.6449 211.824 20.2032 211.575 20.7933C211.327 21.3835 211.334 21.9935 211.596 22.6235C211.872 23.2456 212.363 23.8716 213.067 24.5016C213.772 25.1316 214.635 25.7417 215.657 26.3318Z" fill="#0051C9"/>
</g>
</g>
<defs>
<filter id="filter0_d_352_27341" x="5.21191" y="6.1037" width="236.864" height="150.857" filterUnits="userSpaceOnUse" color-interpolation-filters="sRGB">
<feFlood flood-opacity="0" result="BackgroundImageFix"/>
<feColorMatrix in="SourceAlpha" type="matrix" values="0 0 0 0 0 0 0 0 0 0 0 0 0 0 0 0 0 0 127 0" result="hardAlpha"/>
<feOffset dx="-3" dy="15"/>
<feGaussianBlur stdDeviation="1"/>
<feComposite in2="hardAlpha" operator="out"/>
<feColorMatrix type="matrix" values="0 0 0 0 0.00392157 0 0 0 0 0.690196 0 0 0 0 0.905882 0 0 0 0.21 0"/>
<feBlend mode="normal" in2="BackgroundImageFix" result="effect1_dropShadow_352_27341"/>
<feBlend mode="normal" in="SourceGraphic" in2="effect1_dropShadow_352_27341" result="shape"/>
</filter>
<filter id="filter1_d_352_27341" x="9.21191" y="6.1037" width="232.864" height="136.857" filterUnits="userSpaceOnUse" color-interpolation-filters="sRGB">
<feFlood flood-opacity="0" result="BackgroundImageFix"/>
<feColorMatrix in="SourceAlpha" type="matrix" values="0 0 0 0 0 0 0 0 0 0 0 0 0 0 0 0 0 0 127 0" result="hardAlpha"/>
<feOffset dx="-1" dy="3"/>
<feComposite in2="hardAlpha" operator="out"/>
<feColorMatrix type="matrix" values="0 0 0 0 0.505882 0 0 0 0 1 0 0 0 0 0 0 0 0 1 0"/>
<feBlend mode="normal" in2="BackgroundImageFix" result="effect1_dropShadow_352_27341"/>
<feBlend mode="normal" in="SourceGraphic" in2="effect1_dropShadow_352_27341" result="shape"/>
</filter>
</defs>
</svg>
