<svg width="670" height="903" viewBox="0 0 670 903" fill="none" xmlns="http://www.w3.org/2000/svg">
<g opacity="0.09">
<mask id="mask0_33_62851" style="mask-type:alpha" maskUnits="userSpaceOnUse" x="0" y="0" width="670" height="903">
<rect width="670" height="903" fill="#FAFAFA"/>
</mask>
<g mask="url(#mask0_33_62851)">
<line y1="-0.5" x2="1853.07" y2="-0.5" transform="matrix(0.866041 0.499972 -0.866041 0.499972 -1370.33 452.491)" stroke="black"/>
<line y1="-0.5" x2="1853.07" y2="-0.5" transform="matrix(-0.866041 0.499972 -0.866041 -0.499972 234.502 -450.321)" stroke="black"/>
<line y1="-0.5" x2="1853.07" y2="-0.5" transform="matrix(0.866041 0.499972 -0.866041 0.499972 -1258.63 388.004)" stroke="black"/>
<line y1="-0.5" x2="1853.07" y2="-0.5" transform="matrix(-0.866041 0.499972 -0.866041 -0.499972 346.204 -385.834)" stroke="black"/>
<line y1="-1" x2="1853.07" y2="-1" transform="matrix(0.866041 0.499972 -0.866041 0.499972 -1146.93 323.518)" stroke="black" stroke-width="2" stroke-dasharray="2 9"/>
<line y1="-0.5" x2="1853.07" y2="-0.5" transform="matrix(-0.866041 0.499972 -0.866041 -0.499972 457.907 -321.348)" stroke="black"/>
<line y1="-1" x2="1853.07" y2="-1" transform="matrix(0.866041 0.499972 -0.866041 0.499972 -1035.23 259.031)" stroke="black" stroke-width="2" stroke-dasharray="2 9"/>
<line y1="-1" x2="1853.07" y2="-1" transform="matrix(-0.866041 0.499972 -0.866041 -0.499972 569.609 -256.861)" stroke="black" stroke-width="2" stroke-dasharray="2 9"/>
<line y1="-1" x2="1853.07" y2="-1" transform="matrix(0.866041 0.499972 -0.866041 0.499972 -923.523 194.545)" stroke="black" stroke-width="2" stroke-dasharray="2 9"/>
<line y1="-1" x2="1853.07" y2="-1" transform="matrix(-0.866041 0.499972 -0.866041 -0.499972 681.312 -192.374)" stroke="black" stroke-width="2" stroke-dasharray="2 9"/>
<line y1="-1" x2="1853.07" y2="-1" transform="matrix(0.866041 0.499972 -0.866041 0.499972 -811.821 130.058)" stroke="black" stroke-width="2" stroke-dasharray="2 9"/>
<line y1="-1" x2="1853.07" y2="-1" transform="matrix(-0.866041 0.499972 -0.866041 -0.499972 793.014 -127.888)" stroke="black" stroke-width="2" stroke-dasharray="2 9"/>
<line y1="-1" x2="1853.07" y2="-1" transform="matrix(0.866041 0.499972 -0.866041 0.499972 -700.119 65.5713)" stroke="black" stroke-width="2" stroke-dasharray="2 9"/>
<line y1="-1" x2="1853.07" y2="-1" transform="matrix(-0.866041 0.499972 -0.866041 -0.499972 904.717 -63.4009)" stroke="black" stroke-width="2" stroke-dasharray="2 9"/>
<line y1="-1" x2="1853.07" y2="-1" transform="matrix(0.866041 0.499972 -0.866041 0.499972 -588.416 1.08435)" stroke="black" stroke-width="2" stroke-dasharray="2 9"/>
<line y1="-1" x2="1853.07" y2="-1" transform="matrix(-0.866041 0.499972 -0.866041 -0.499972 1016.42 1.08557)" stroke="black" stroke-width="2" stroke-dasharray="2 9"/>
<line y1="-1" x2="1853.07" y2="-1" transform="matrix(0.866041 0.499972 -0.866041 0.499972 -476.717 -63.4009)" stroke="black" stroke-width="2" stroke-dasharray="2 9"/>
<line y1="-1" x2="1853.07" y2="-1" transform="matrix(-0.866041 0.499972 -0.866041 -0.499972 1128.12 65.5724)" stroke="black" stroke-width="2" stroke-dasharray="2 9"/>
<line y1="-1" x2="1853.07" y2="-1" transform="matrix(0.866041 0.499972 -0.866041 0.499972 -365.015 -127.888)" stroke="black" stroke-width="2" stroke-dasharray="2 9"/>
<line y1="-1" x2="1853.07" y2="-1" transform="matrix(-0.866041 0.499972 -0.866041 -0.499972 1239.82 130.059)" stroke="black" stroke-width="2" stroke-dasharray="2 9"/>
<line y1="-1" x2="1853.07" y2="-1" transform="matrix(0.866041 0.499972 -0.866041 0.499972 -253.312 -192.374)" stroke="black" stroke-width="2" stroke-dasharray="2 9"/>
<line y1="-1" x2="1853.07" y2="-1" transform="matrix(-0.866041 0.499972 -0.866041 -0.499972 1351.53 194.546)" stroke="black" stroke-width="2" stroke-dasharray="2 9"/>
<path d="M-141.177 -257.111L1463.66 669.375" stroke="black" stroke-width="2" stroke-dasharray="2 9"/>
<line y1="-1" x2="1853.07" y2="-1" transform="matrix(-0.866041 0.499972 -0.866041 -0.499972 1463.23 259.033)" stroke="black" stroke-width="2" stroke-dasharray="2 9"/>
<line y1="-1" x2="1853.07" y2="-1" transform="matrix(0.866041 0.499972 -0.866041 0.499972 -29.9076 -321.348)" stroke="black" stroke-width="2" stroke-dasharray="2 9"/>
<line y1="-1" x2="1853.07" y2="-1" transform="matrix(-0.866041 0.499972 -0.866041 -0.499972 1574.93 323.519)" stroke="black" stroke-width="2" stroke-dasharray="2 9"/>
<line y1="-0.5" x2="1853.07" y2="-0.5" transform="matrix(0.866041 0.499972 -0.866041 0.499972 81.7949 -385.834)" stroke="black"/>
<line y1="-1" x2="1853.07" y2="-1" transform="matrix(-0.866041 0.499972 -0.866041 -0.499972 1686.63 388.006)" stroke="black" stroke-width="2" stroke-dasharray="2 9"/>
<line y1="-0.5" x2="1853.07" y2="-0.5" transform="matrix(0.866041 0.499972 -0.866041 0.499972 193.497 -450.321)" stroke="black"/>
<line y1="-0.5" x2="1853.07" y2="-0.5" transform="matrix(-0.866041 0.499972 -0.866041 -0.499972 1798.34 452.493)" stroke="black"/>
</g>
</g>
</svg>
