<svg width="372" height="319" viewBox="0 0 372 319" fill="none" xmlns="http://www.w3.org/2000/svg">
<path d="M171.5 156.501V124.501L219 150.501V183.001L171.5 156.501Z" fill="url(#paint0_linear_33_54443)"/>
<path d="M280.5 115.001L219 150.501V182.001L280 145.501L280.5 115.001Z" fill="url(#paint1_linear_33_54443)"/>
<path d="M215.989 150.8L172.069 126.687C170.713 125.942 170.68 124.004 172.011 123.214L231.999 87.5955C232.618 87.2283 233.386 87.2215 234.011 87.5777L280.017 113.801C281.349 114.56 281.367 116.474 280.05 117.257L223.931 150.661C221.496 152.111 218.474 152.164 215.989 150.8Z" fill="#C8E7FF"/>
<path d="M86.5 202.501V170.501L134 196.501V229.001L86.5 202.501Z" fill="url(#paint2_linear_33_54443)"/>
<path d="M195.5 161.001L134 196.501V228.001L195 191.501L195.5 161.001Z" fill="url(#paint3_linear_33_54443)"/>
<path d="M130.989 196.8L87.0694 172.687C85.7126 171.942 85.6799 170.004 87.0109 169.214L146.999 133.596C147.618 133.228 148.386 133.221 149.011 133.578L195.017 159.801C196.349 160.56 196.367 162.474 195.05 163.257L138.931 196.661C136.496 198.111 133.474 198.164 130.989 196.8Z" fill="#C8E7FF"/>
<path d="M3 250.001V218.001L50.5 244.001V276.501L3 250.001Z" fill="url(#paint4_linear_33_54443)"/>
<path d="M112 208.501L50.5 244.001V275.501L111.5 239.001L112 208.501Z" fill="url(#paint5_linear_33_54443)"/>
<path d="M47.4895 244.3L3.56942 220.187C2.21258 219.442 2.17991 217.504 3.51086 216.714L63.4995 181.096C64.118 180.728 64.886 180.721 65.5109 181.078L111.517 207.301C112.849 208.06 112.867 209.974 111.55 210.757L55.4314 244.161C52.9956 245.611 49.9743 245.664 47.4895 244.3Z" fill="#C8E7FF"/>
<g filter="url(#filter0_d_33_54443)">
<path d="M134.5 233.501L136.231 230.46L133.441 228.871L131.618 231.515L134.5 233.501ZM167 252.001L165.269 255.043L168.188 256.705L169.968 253.856L167 252.001ZM204.5 192.001L205.98 188.83L203.174 187.52L201.532 190.146L204.5 192.001ZM234.5 206.001L233.02 209.173L235.878 210.507L237.501 207.802L234.5 206.001ZM269 148.501L270.748 145.469L267.768 143.752L265.999 146.701L269 148.501ZM298.5 165.501L296.752 168.534L299.637 170.196L301.442 167.398L298.5 165.501ZM372 51.5015L336.051 69.9677L370.018 91.8673L372 51.5015ZM111.882 272.488L137.382 235.488L131.618 231.515L106.118 268.515L111.882 272.488ZM132.769 236.543L165.269 255.043L168.731 248.96L136.231 230.46L132.769 236.543ZM169.968 253.856L207.468 193.856L201.532 190.146L164.032 250.146L169.968 253.856ZM203.02 195.173L233.02 209.173L235.98 202.83L205.98 188.83L203.02 195.173ZM237.501 207.802L272.001 150.302L265.999 146.701L231.499 204.201L237.501 207.802ZM267.252 151.534L296.752 168.534L300.248 162.469L270.748 145.469L267.252 151.534ZM301.442 167.398L357.873 79.8725L351.989 76.0794L295.558 163.605L301.442 167.398Z" fill="url(#paint6_linear_33_54443)"/>
</g>
<path d="M171 34.0015L229.5 0.00146484V83.0015L171 117.073V34.0015Z" fill="#D2ADAD"/>
<path d="M221 62.0015L171 34.0015V117.159L221 145.001V62.0015Z" fill="url(#paint7_linear_33_54443)"/>
<path d="M279.5 73.0015L229.5 45.0015V83.0015L279.5 111.001V73.0015Z" fill="#2B1D44"/>
<path d="M221 62.0015L279.5 28.0015V111.001L221 145.073V62.0015Z" fill="url(#paint8_linear_33_54443)"/>
<path d="M229.5 0.00146484L171 34.0015L221 62.0015L279.5 28.0015L229.5 0.00146484Z" fill="url(#paint9_linear_33_54443)"/>
<path d="M86 101.001L144.5 67.0015V129.001L86 163.073V101.001Z" fill="#D2ADAD"/>
<path d="M136 128.001L86 100.001V163.159L136 191.001V128.001Z" fill="url(#paint10_linear_33_54443)"/>
<path d="M194.5 119.001L144.5 91.0015V129.001L194.5 157.001V119.001Z" fill="#2B1D44"/>
<path d="M136 128.001L194.5 94.0015V157.001L136 191.073V128.001Z" fill="url(#paint11_linear_33_54443)"/>
<path d="M144.5 66.0015L86 100.001L136 128.001L194.5 94.0015L144.5 66.0015Z" fill="url(#paint12_linear_33_54443)"/>
<path d="M1 172.001L59.5 138.001V176.001L1 210.073V172.001Z" fill="#D2ADAD"/>
<path d="M51 200.001L1 172.001V210.159L51 238.001V200.001Z" fill="url(#paint13_linear_33_54443)"/>
<path d="M109.5 166.001L59.5 138.001V176.001L109.5 204.001V166.001Z" fill="#2B1D44"/>
<path d="M51 200.001L109.5 166.001V204.001L51 238.073V200.001Z" fill="url(#paint14_linear_33_54443)"/>
<path d="M59.5 138.001L1 172.001L51 200.001L109.5 166.001L59.5 138.001Z" fill="url(#paint15_linear_33_54443)"/>
<defs>
<filter id="filter0_d_33_54443" x="83.1182" y="51.5015" width="288.882" height="266.986" filterUnits="userSpaceOnUse" color-interpolation-filters="sRGB">
<feFlood flood-opacity="0" result="BackgroundImageFix"/>
<feColorMatrix in="SourceAlpha" type="matrix" values="0 0 0 0 0 0 0 0 0 0 0 0 0 0 0 0 0 0 127 0" result="hardAlpha"/>
<feOffset dx="-19" dy="42"/>
<feGaussianBlur stdDeviation="2"/>
<feComposite in2="hardAlpha" operator="out"/>
<feColorMatrix type="matrix" values="0 0 0 0 0.00527903 0 0 0 0 0.690067 0 0 0 0 0.905 0 0 0 0.14 0"/>
<feBlend mode="normal" in2="BackgroundImageFix" result="effect1_dropShadow_33_54443"/>
<feBlend mode="normal" in="SourceGraphic" in2="effect1_dropShadow_33_54443" result="shape"/>
</filter>
<linearGradient id="paint0_linear_33_54443" x1="197" y1="137.501" x2="178" y2="172.001" gradientUnits="userSpaceOnUse">
<stop stop-color="#B3DDFF" stop-opacity="0.81"/>
<stop offset="0.615" stop-color="#E9F5FF" stop-opacity="0.56"/>
<stop offset="1" stop-color="white" stop-opacity="0.61"/>
</linearGradient>
<linearGradient id="paint1_linear_33_54443" x1="255" y1="128.501" x2="280.5" y2="175.001" gradientUnits="userSpaceOnUse">
<stop stop-color="#B3DDFF" stop-opacity="0.56"/>
<stop offset="0.525" stop-color="#F4FAFF"/>
<stop offset="1" stop-color="white" stop-opacity="0.8"/>
</linearGradient>
<linearGradient id="paint2_linear_33_54443" x1="112" y1="183.501" x2="93" y2="218.001" gradientUnits="userSpaceOnUse">
<stop stop-color="#B3DDFF" stop-opacity="0.81"/>
<stop offset="0.615" stop-color="#E9F5FF" stop-opacity="0.56"/>
<stop offset="1" stop-color="white" stop-opacity="0.61"/>
</linearGradient>
<linearGradient id="paint3_linear_33_54443" x1="170" y1="174.501" x2="195.5" y2="221.001" gradientUnits="userSpaceOnUse">
<stop stop-color="#B3DDFF" stop-opacity="0.56"/>
<stop offset="0.525" stop-color="#F4FAFF"/>
<stop offset="1" stop-color="white" stop-opacity="0.8"/>
</linearGradient>
<linearGradient id="paint4_linear_33_54443" x1="28.5" y1="231.001" x2="9.5" y2="265.501" gradientUnits="userSpaceOnUse">
<stop stop-color="#B3DDFF" stop-opacity="0.81"/>
<stop offset="0.615" stop-color="#E9F5FF" stop-opacity="0.56"/>
<stop offset="1" stop-color="white" stop-opacity="0.61"/>
</linearGradient>
<linearGradient id="paint5_linear_33_54443" x1="86.5" y1="222.001" x2="112" y2="268.501" gradientUnits="userSpaceOnUse">
<stop stop-color="#B3DDFF" stop-opacity="0.56"/>
<stop offset="0.525" stop-color="#F4FAFF"/>
<stop offset="1" stop-color="white" stop-opacity="0.8"/>
</linearGradient>
<linearGradient id="paint6_linear_33_54443" x1="341" y1="97.0015" x2="121" y2="270.002" gradientUnits="userSpaceOnUse">
<stop stop-color="#00C2ED"/>
<stop offset="1" stop-color="#ADFF00"/>
</linearGradient>
<linearGradient id="paint7_linear_33_54443" x1="189.5" y1="123.501" x2="201.5" y2="51.5015" gradientUnits="userSpaceOnUse">
<stop stop-color="#003482"/>
<stop offset="1" stop-color="#1065E2"/>
</linearGradient>
<linearGradient id="paint8_linear_33_54443" x1="279" y1="66.0015" x2="221" y2="108.501" gradientUnits="userSpaceOnUse">
<stop stop-color="#4B93FF"/>
<stop offset="1" stop-color="#1065E2"/>
</linearGradient>
<linearGradient id="paint9_linear_33_54443" x1="266.5" y1="7.00147" x2="171" y2="70.5015" gradientUnits="userSpaceOnUse">
<stop stop-color="#4B93FF"/>
<stop offset="1" stop-color="#1065E2"/>
</linearGradient>
<linearGradient id="paint10_linear_33_54443" x1="107" y1="181.501" x2="108.5" y2="109.501" gradientUnits="userSpaceOnUse">
<stop stop-color="#003482"/>
<stop offset="1" stop-color="#1065E2"/>
</linearGradient>
<linearGradient id="paint11_linear_33_54443" x1="189" y1="125.001" x2="136" y2="155.501" gradientUnits="userSpaceOnUse">
<stop stop-color="#4B93FF"/>
<stop offset="1" stop-color="#1065E2"/>
</linearGradient>
<linearGradient id="paint12_linear_33_54443" x1="184" y1="71.5015" x2="95" y2="132.001" gradientUnits="userSpaceOnUse">
<stop stop-color="#4B93FF"/>
<stop offset="1" stop-color="#1065E2"/>
</linearGradient>
<linearGradient id="paint13_linear_33_54443" x1="18.5" y1="242.001" x2="42.5" y2="184.001" gradientUnits="userSpaceOnUse">
<stop stop-color="#003482"/>
<stop offset="0.668832" stop-color="#1065E2" stop-opacity="0.99"/>
</linearGradient>
<linearGradient id="paint14_linear_33_54443" x1="106.5" y1="181.001" x2="55.5" y2="221.001" gradientUnits="userSpaceOnUse">
<stop stop-color="#4B93FF"/>
<stop offset="1" stop-color="#1065E2"/>
</linearGradient>
<linearGradient id="paint15_linear_33_54443" x1="109" y1="141.001" x2="8.5" y2="195.501" gradientUnits="userSpaceOnUse">
<stop stop-color="#4B93FF"/>
<stop offset="1" stop-color="#1065E2"/>
</linearGradient>
</defs>
</svg>
