<svg width="377" height="396" viewBox="0 0 377 396" fill="none" xmlns="http://www.w3.org/2000/svg">
<path d="M176.5 233.501V201.501L224 227.501V260.001L176.5 233.501Z" fill="url(#paint0_linear_33_54530)"/>
<path d="M285.5 192.001L224 227.501V259.001L285 222.501L285.5 192.001Z" fill="url(#paint1_linear_33_54530)"/>
<path d="M220.989 227.8L177.069 203.687C175.713 202.942 175.68 201.004 177.011 200.214L236.999 164.596C237.618 164.228 238.386 164.221 239.011 164.578L285.017 190.801C286.349 191.56 286.367 193.474 285.05 194.257L228.931 227.661C226.496 229.111 223.474 229.164 220.989 227.8Z" fill="#C8E7FF"/>
<path d="M91.5 279.501V247.501L139 273.501V306.001L91.5 279.501Z" fill="url(#paint2_linear_33_54530)"/>
<path d="M200.5 238.001L139 273.501V305.001L200 268.501L200.5 238.001Z" fill="url(#paint3_linear_33_54530)"/>
<path d="M135.989 273.8L92.0694 249.687C90.7126 248.942 90.6799 247.004 92.0109 246.214L151.999 210.596C152.618 210.228 153.386 210.221 154.011 210.578L200.017 236.801C201.349 237.56 201.367 239.474 200.05 240.257L143.931 273.661C141.496 275.111 138.474 275.164 135.989 273.8Z" fill="#C8E7FF"/>
<path d="M8 327.001V295.001L55.5 321.001V353.501L8 327.001Z" fill="url(#paint4_linear_33_54530)"/>
<path d="M117 285.501L55.5 321.001V352.501L116.5 316.001L117 285.501Z" fill="url(#paint5_linear_33_54530)"/>
<path d="M52.4895 321.3L8.56942 297.187C7.21258 296.442 7.17991 294.504 8.51086 293.714L68.4995 258.096C69.118 257.728 69.886 257.721 70.5109 258.078L116.517 284.301C117.849 285.06 117.867 286.974 116.55 287.757L60.4314 321.161C57.9956 322.611 54.9743 322.664 52.4895 321.3Z" fill="#C8E7FF"/>
<g filter="url(#filter0_d_33_54530)">
<path d="M139.5 310.501L141.231 307.46L138.441 305.871L136.618 308.515L139.5 310.501ZM172 329.001L170.269 332.043L173.188 333.705L174.968 330.856L172 329.001ZM209.5 269.001L210.98 265.83L208.174 264.52L206.532 267.146L209.5 269.001ZM239.5 283.001L238.02 286.173L240.878 287.507L242.501 284.802L239.5 283.001ZM274 225.501L275.748 222.469L272.768 220.752L270.999 223.701L274 225.501ZM303.5 242.501L301.752 245.534L304.637 247.196L306.442 244.398L303.5 242.501ZM377 128.501L341.051 146.968L375.018 168.867L377 128.501ZM116.882 349.488L142.382 312.488L136.618 308.515L111.118 345.515L116.882 349.488ZM137.769 313.543L170.269 332.043L173.731 325.96L141.231 307.46L137.769 313.543ZM174.968 330.856L212.468 270.856L206.532 267.146L169.032 327.146L174.968 330.856ZM208.02 272.173L238.02 286.173L240.98 279.83L210.98 265.83L208.02 272.173ZM242.501 284.802L277.001 227.302L270.999 223.701L236.499 281.201L242.501 284.802ZM272.252 228.534L301.752 245.534L305.248 239.469L275.748 222.469L272.252 228.534ZM306.442 244.398L362.873 156.872L356.989 153.079L300.558 240.605L306.442 244.398Z" fill="url(#paint6_linear_33_54530)"/>
</g>
<path d="M176 111.001L234.5 77.0015V160.001L176 194.073V111.001Z" fill="#D2ADAD"/>
<path d="M226 139.001L176 111.001V194.159L226 222.001V139.001Z" fill="url(#paint7_linear_33_54530)"/>
<path d="M284.5 150.001L234.5 122.001V160.001L284.5 188.001V150.001Z" fill="#2B1D44"/>
<path d="M226 139.001L284.5 105.001V188.001L226 222.073V139.001Z" fill="url(#paint8_linear_33_54530)"/>
<path d="M234.5 77.0015L176 111.001L226 139.001L284.5 105.001L234.5 77.0015Z" fill="url(#paint9_linear_33_54530)"/>
<path d="M91 178.001L149.5 144.001V206.001L91 240.073V178.001Z" fill="#D2ADAD"/>
<path d="M141 205.001L91 177.001V240.159L141 268.001V205.001Z" fill="url(#paint10_linear_33_54530)"/>
<path d="M199.5 196.001L149.5 168.001V206.001L199.5 234.001V196.001Z" fill="#2B1D44"/>
<path d="M141 205.001L199.5 171.001V234.001L141 268.073V205.001Z" fill="url(#paint11_linear_33_54530)"/>
<path d="M149.5 143.001L91 177.001L141 205.001L199.5 171.001L149.5 143.001Z" fill="url(#paint12_linear_33_54530)"/>
<path d="M6 249.001L64.5 215.001V253.001L6 287.073V249.001Z" fill="#D2ADAD"/>
<path d="M56 277.001L6 249.001V287.159L56 315.001V277.001Z" fill="url(#paint13_linear_33_54530)"/>
<path d="M114.5 243.001L64.5 215.001V253.001L114.5 281.001V243.001Z" fill="#2B1D44"/>
<path d="M56 277.001L114.5 243.001V281.001L56 315.073V277.001Z" fill="url(#paint14_linear_33_54530)"/>
<path d="M64.5 215.001L6 249.001L56 277.001L114.5 243.001L64.5 215.001Z" fill="url(#paint15_linear_33_54530)"/>
<g filter="url(#filter1_d_33_54530)">
<g filter="url(#filter2_d_33_54530)">
<path d="M50.8034 134.662L44.3592 138.382L40.2773 135.978L46.68 132.281C48.5448 131.205 49.6983 130.068 50.1403 128.872C50.5962 127.668 50.3821 126.444 49.498 125.2C48.6277 123.948 47.1427 122.715 45.043 121.503L43.4061 120.558C41.7761 119.617 40.146 118.892 38.516 118.381C36.8998 117.863 35.3043 117.564 33.7295 117.484C32.1686 117.396 30.649 117.524 29.171 117.867C27.7067 118.202 26.3046 118.756 24.9647 119.53L18.2097 123.429L14.0656 121.037L20.8205 117.137C22.8235 115.981 24.9923 115.119 27.3268 114.553C29.6475 113.979 32.0373 113.708 34.4962 113.74C36.9689 113.764 39.407 114.095 41.8106 114.733C44.2142 115.371 46.5004 116.316 48.6692 117.568L50.2647 118.489C52.4334 119.741 54.0704 121.061 55.1755 122.448C56.2806 123.836 56.8538 125.243 56.8953 126.671C56.9229 128.09 56.4325 129.482 55.4241 130.846C54.4157 132.194 52.8755 133.466 50.8034 134.662ZM17.0701 119.302L47.2394 136.719L42.0385 139.722L11.8692 122.305L17.0701 119.302ZM77.4088 114.111L66.7169 107.938C65.9157 107.476 65.08 107.161 64.2097 106.993C63.3394 106.826 62.4484 106.822 61.5367 106.981C60.6388 107.133 59.7478 107.464 58.8637 107.974C58.0487 108.445 57.4824 108.931 57.1647 109.433C56.8469 109.936 56.7571 110.418 56.8953 110.881C57.0334 111.343 57.3995 111.746 57.9935 112.089L53.0205 114.96C52.1364 114.45 51.4941 113.832 51.0935 113.106C50.6929 112.38 50.5755 111.595 50.7412 110.749C50.907 109.904 51.3698 109.047 52.1295 108.177C52.8893 107.308 53.9737 106.467 55.3827 105.653C57.068 104.68 58.843 103.983 60.7079 103.56C62.5866 103.129 64.4722 103.03 66.3646 103.261C68.2571 103.476 70.0598 104.078 71.7728 105.067L81.7394 110.821C82.7616 111.411 83.7493 111.902 84.7025 112.292C85.6556 112.667 86.5673 112.946 87.4376 113.13L87.7691 113.321L82.6511 116.276C81.8776 116.1 81.0073 115.813 80.0403 115.415C79.0734 115 78.1962 114.565 77.4088 114.111ZM68.9962 108.417L72.125 110.175L68.5403 112.245C67.6148 112.779 66.8896 113.301 66.3646 113.812C65.8259 114.314 65.4875 114.796 65.3493 115.259C65.2112 115.722 65.2595 116.156 65.4944 116.563C65.7292 116.97 66.1436 117.344 66.7376 117.687C67.3316 118.03 68.0154 118.266 68.789 118.393C69.5487 118.513 70.3292 118.501 71.1304 118.357C71.9454 118.206 72.7328 117.911 73.4926 117.472C74.5148 116.882 75.1986 116.248 75.5439 115.57C75.8893 114.876 75.9791 114.226 75.8133 113.62C75.6337 113.006 75.2815 112.532 74.7565 112.197L78.5899 112.544C78.9905 112.966 79.3151 113.481 79.5637 114.087C79.8124 114.693 79.9091 115.355 79.8538 116.072C79.7986 116.774 79.5085 117.492 78.9836 118.226C78.4725 118.951 77.6367 119.649 76.4764 120.319C75.0121 121.164 73.4166 121.75 71.6899 122.077C69.9493 122.396 68.2571 122.456 66.6133 122.257C64.9556 122.05 63.4914 121.579 62.2205 120.845C61.0325 120.16 60.2037 119.426 59.734 118.644C59.2643 117.847 59.1538 117.017 59.4025 116.156C59.6649 115.287 60.2728 114.394 61.2259 113.477C62.1652 112.552 63.4499 111.618 65.08 110.677L68.9962 108.417ZM98.6475 100.031C98.1502 99.744 97.577 99.5566 96.9277 99.4688C96.2646 99.3732 95.4151 99.433 94.3791 99.6483C93.3568 99.8556 92.0307 100.27 90.4007 100.892C88.9502 101.427 87.5481 101.877 86.1944 102.244C84.8406 102.595 83.549 102.822 82.3196 102.926C81.0902 103.03 79.9229 102.986 78.8178 102.794C77.7127 102.603 76.6905 102.236 75.7511 101.694C74.8394 101.167 74.1764 100.553 73.7619 99.8516C73.3475 99.1499 73.2025 98.4042 73.3268 97.6147C73.4511 96.8252 73.8655 96.0197 74.5701 95.1983C75.2884 94.369 76.3106 93.5715 77.6367 92.8059C79.5154 91.7213 81.4424 90.9757 83.4178 90.569C85.3932 90.1463 87.2788 90.0386 89.0746 90.246C90.8565 90.4453 92.4175 90.9318 93.7574 91.7054L88.7637 94.5883C88.1697 94.2453 87.4652 94.0141 86.6502 93.8945C85.8352 93.7589 84.9719 93.7708 84.0601 93.9303C83.1346 94.0819 82.2229 94.4168 81.325 94.9352C80.4685 95.4296 79.8953 95.9201 79.6052 96.4065C79.3151 96.877 79.246 97.3156 79.398 97.7224C79.5637 98.1211 79.9022 98.468 80.4133 98.7631C80.7863 98.9784 81.1938 99.1339 81.6358 99.2296C82.0779 99.3094 82.5959 99.3213 83.1899 99.2655C83.77 99.2017 84.4607 99.0581 85.2619 98.8349C86.077 98.6036 87.037 98.2806 88.1421 97.8659C90.2142 97.0844 92.1481 96.5022 93.9439 96.1194C95.7397 95.7207 97.4112 95.5851 98.9583 95.7127C100.492 95.8323 101.928 96.2789 103.268 97.0525C104.263 97.6267 104.96 98.2766 105.361 99.0023C105.762 99.7121 105.865 100.474 105.672 101.287C105.465 102.093 104.967 102.914 104.18 103.751C103.406 104.581 102.329 105.394 100.948 106.192C98.9169 107.364 96.8379 108.149 94.7106 108.548C92.5694 108.939 90.5664 109.019 88.7016 108.787C86.8367 108.54 85.2896 108.062 84.0601 107.352L88.8881 104.565C89.8688 105.067 90.8634 105.346 91.8718 105.402C92.8803 105.442 93.8541 105.334 94.7935 105.079C95.7328 104.808 96.5755 104.457 97.3214 104.026C98.2193 103.508 98.8547 103.006 99.2277 102.519C99.5869 102.025 99.7181 101.566 99.6214 101.144C99.5109 100.713 99.1863 100.342 98.6475 100.031ZM87.0854 76.9679L118.912 95.3419L113.939 98.2128L82.1124 79.8388L87.0854 76.9679ZM106.003 88.8942L104.366 89.8153C102.833 88.9142 101.617 87.9652 100.72 86.9683C99.8355 85.9635 99.2899 84.9627 99.0827 83.9658C98.8755 82.953 99.0481 81.9841 99.6007 81.059C100.139 80.1259 101.065 79.2806 102.377 78.523C103.482 77.885 104.629 77.3985 105.817 77.0636C107.019 76.7207 108.283 76.5572 109.609 76.5731C110.921 76.5811 112.282 76.8004 113.691 77.2311C115.1 77.6458 116.571 78.2957 118.104 79.1809L132.505 87.4947L127.491 90.3895L113.048 82.0518C111.971 81.4298 110.956 81.0271 110.002 80.8437C109.063 80.6523 108.158 80.6483 107.288 80.8317C106.404 81.0071 105.534 81.3421 104.677 81.8365C103.779 82.3549 103.165 82.9171 102.833 83.5232C102.515 84.1213 102.439 84.7314 102.605 85.3534C102.771 85.9755 103.144 86.5895 103.724 87.1956C104.318 87.7937 105.078 88.3599 106.003 88.8942ZM105.755 66.1899L110.748 63.307L137.789 78.9177L142.099 81.9561L137.582 84.5639L105.755 66.1899ZM145.787 66.6445L146.222 66.8957C147.88 67.8527 149.22 68.8416 150.242 69.8623C151.264 70.8672 151.914 71.88 152.19 72.9007C152.48 73.9135 152.363 74.8984 151.838 75.8554C151.313 76.7964 150.339 77.6777 148.916 78.4991C147.521 79.3045 146.043 79.8548 144.482 80.1498C142.921 80.4449 141.305 80.5167 139.633 80.3652C137.975 80.2057 136.263 79.8628 134.494 79.3364C132.726 78.8101 130.944 78.1322 129.148 77.3028L127.76 76.5014C126.31 75.4567 125.136 74.4279 124.238 73.4151C123.326 72.3943 122.732 71.4055 122.456 70.4485C122.179 69.4755 122.29 68.5425 122.787 67.6493C123.298 66.7482 124.245 65.8988 125.626 65.1014C127.063 64.272 128.603 63.7018 130.247 63.3908C131.904 63.0718 133.61 62.996 135.365 63.1635C137.105 63.323 138.853 63.7018 140.607 64.2999C142.375 64.89 144.102 65.6716 145.787 66.6445ZM141.229 69.7786L140.793 69.5274C139.785 68.9452 138.756 68.4468 137.706 68.0321C136.642 67.6094 135.579 67.3144 134.515 67.1469C133.465 66.9715 132.422 66.9595 131.386 67.111C130.35 67.2466 129.356 67.5895 128.402 68.1398C127.518 68.6502 126.911 69.1765 126.579 69.7188C126.248 70.2611 126.13 70.8073 126.227 71.3576C126.323 71.9079 126.593 72.4541 127.035 72.9964C127.491 73.5307 128.078 74.0531 128.796 74.5635L132.547 76.7286C133.707 77.255 134.923 77.6537 136.193 77.9249C137.464 78.1801 138.735 78.2439 140.006 78.1163C141.263 77.9807 142.479 77.574 143.653 76.8961C144.578 76.3618 145.172 75.8036 145.435 75.2214C145.697 74.6392 145.684 74.0491 145.393 73.451C145.103 72.8369 144.592 72.2229 143.86 71.6088C143.142 70.9868 142.265 70.3767 141.229 69.7786ZM149.517 65.0176L149.04 64.7425C147.424 63.8094 146.16 62.8086 145.248 61.74C144.323 60.6634 143.791 59.5748 143.653 58.4743C143.515 57.3578 143.805 56.2653 144.523 55.1966C145.242 54.1121 146.416 53.0993 148.046 52.1582C149.69 51.2092 151.444 50.5314 153.309 50.1246C155.174 49.702 157.073 49.5305 159.007 49.6103C160.927 49.682 162.82 49.9851 164.684 50.5194C166.535 51.0457 168.269 51.7754 169.885 52.7085L170.362 52.9836C171.978 53.9167 173.242 54.9175 174.154 55.9861C175.066 57.0548 175.59 58.1473 175.729 59.2638C175.853 60.3723 175.563 61.4648 174.858 62.5414C174.14 63.6101 172.966 64.6149 171.336 65.5559C169.692 66.5049 167.938 67.1908 166.073 67.6134C164.208 68.0201 162.315 68.1876 160.395 68.1158C158.461 68.0361 156.569 67.7331 154.718 67.2067C152.867 66.6804 151.133 65.9507 149.517 65.0176ZM154.034 61.8596L154.511 62.1347C155.519 62.7169 156.576 63.2073 157.681 63.6061C158.786 64.0048 159.898 64.272 161.017 64.4076C162.136 64.5431 163.234 64.5232 164.311 64.3477C165.389 64.1723 166.404 63.8094 167.357 63.2592C168.283 62.7249 168.891 62.1507 169.181 61.5366C169.485 60.9146 169.519 60.2806 169.284 59.6346C169.05 58.9887 168.587 58.3467 167.896 57.7087C167.219 57.0627 166.377 56.4487 165.368 55.8665L164.892 55.5914C163.897 55.0172 162.847 54.5387 161.742 54.1559C160.637 53.7572 159.511 53.49 158.365 53.3544C157.232 53.2109 156.127 53.2269 155.049 53.4023C153.972 53.5618 152.963 53.9127 152.024 54.455C151.085 54.9973 150.47 55.5834 150.18 56.2134C149.89 56.8275 149.869 57.4615 150.118 58.1154C150.366 58.7694 150.836 59.4153 151.527 60.0533C152.204 60.6833 153.039 61.2854 154.034 61.8596ZM193.652 47.0025L182.96 40.83C182.159 40.3675 181.323 40.0524 180.453 39.885C179.583 39.7175 178.692 39.7135 177.78 39.873C176.882 40.0245 175.991 40.3555 175.107 40.8659C174.292 41.3364 173.726 41.8229 173.408 42.3253C173.09 42.8277 173 43.3102 173.138 43.7727C173.277 44.2352 173.643 44.638 174.237 44.9809L169.264 47.8518C168.38 47.3414 167.737 46.7234 167.337 45.9977C166.936 45.272 166.819 44.4864 166.984 43.6411C167.15 42.7958 167.613 41.9385 168.373 41.0692C169.132 40.2 170.217 39.3586 171.626 38.5452C173.311 37.5723 175.086 36.8745 176.951 36.4518C178.83 36.0212 180.715 35.9215 182.608 36.1528C184.5 36.3681 186.303 36.9702 188.016 37.9591L197.983 43.7129C199.005 44.303 199.993 44.7935 200.946 45.1842C201.899 45.5591 202.811 45.8382 203.681 46.0216L204.012 46.213L198.894 49.1677C198.121 48.9922 197.251 48.7051 196.284 48.3064C195.317 47.8917 194.439 47.4571 193.652 47.0025ZM185.239 41.3085L188.368 43.0669L184.784 45.1364C183.858 45.6707 183.133 46.1931 182.608 46.7034C182.069 47.2059 181.731 47.6883 181.593 48.1509C181.454 48.6134 181.503 49.048 181.738 49.4548C181.972 49.8615 182.387 50.2363 182.981 50.5792C183.575 50.9221 184.259 51.1574 185.032 51.285C185.792 51.4046 186.572 51.3926 187.374 51.2491C188.189 51.0976 188.976 50.8025 189.736 50.3639C190.758 49.7738 191.442 49.1398 191.787 48.4619C192.132 47.7681 192.222 47.1181 192.057 46.5121C191.877 45.898 191.525 45.4235 191 45.0885L194.833 45.4355C195.234 45.8581 195.558 46.3725 195.807 46.9786C196.056 47.5847 196.152 48.2466 196.097 48.9643C196.042 49.6661 195.752 50.3838 195.227 51.1175C194.716 51.8432 193.88 52.541 192.72 53.2109C191.255 54.0562 189.66 54.6424 187.933 54.9694C186.193 55.2883 184.5 55.3482 182.857 55.1488C181.199 54.9414 179.735 54.4709 178.464 53.7372C177.276 53.0514 176.447 52.3177 175.977 51.5362C175.508 50.7387 175.397 49.9093 175.646 49.048C175.908 48.1788 176.516 47.2856 177.469 46.3685C178.408 45.4434 179.693 44.5104 181.323 43.5693L185.239 41.3085ZM195.248 30.3152L213.399 40.7941L208.405 43.677L185.985 30.7339L190.751 27.9826L195.248 30.3152ZM197.693 23.8077L202.293 26.5112C201.933 26.6547 201.56 26.8222 201.174 27.0136C200.801 27.197 200.441 27.3884 200.096 27.5878C199.24 28.0822 198.611 28.5886 198.211 29.107C197.796 29.6174 197.596 30.1318 197.61 30.6501C197.623 31.1525 197.831 31.655 198.231 32.1574C198.632 32.6598 199.205 33.1502 199.951 33.6287L198.894 34.3345C197.485 33.5211 196.318 32.6877 195.393 31.8344C194.467 30.9811 193.825 30.1318 193.466 29.2864C193.12 28.4331 193.113 27.6157 193.445 26.8342C193.79 26.0447 194.522 25.3269 195.641 24.681C195.945 24.5055 196.297 24.3341 196.698 24.1666C197.112 23.9912 197.444 23.8715 197.693 23.8077ZM232.006 24.6929L204.82 8.9985L209.835 6.10364L241.662 24.4776L237.124 27.0974L232.006 24.6929ZM211.099 29.4659L210.664 29.2147C208.965 28.2338 207.618 27.2249 206.623 26.1882C205.615 25.1435 204.986 24.1108 204.738 23.09C204.475 22.0613 204.62 21.0764 205.173 20.1353C205.711 19.1863 206.665 18.3171 208.032 17.5276C209.386 16.746 210.836 16.2117 212.384 15.9246C213.931 15.6375 215.554 15.5697 217.253 15.7213C218.938 15.8648 220.672 16.2037 222.454 16.7381C224.222 17.2644 226.018 17.9502 227.841 18.7956L229.229 19.597C230.652 20.6258 231.813 21.6466 232.711 22.6594C233.608 23.6722 234.182 24.665 234.43 25.638C234.679 26.6109 234.548 27.5479 234.037 28.4491C233.539 29.3423 232.607 30.1836 231.239 30.9731C229.886 31.7546 228.38 32.2969 226.722 32.6C225.078 32.895 223.366 32.9668 221.584 32.8153C219.802 32.6638 218.02 32.3049 216.238 31.7387C214.442 31.1645 212.729 30.4069 211.099 29.4659ZM215.657 26.3318L216.093 26.583C217.115 27.1731 218.158 27.6715 219.221 28.0783C220.299 28.477 221.376 28.7561 222.454 28.9156C223.517 29.0671 224.56 29.0711 225.583 28.9276C226.605 28.7681 227.565 28.4291 228.463 27.9108C229.596 27.2568 230.279 26.575 230.514 25.8652C230.749 25.1555 230.652 24.4377 230.224 23.712C229.796 22.9704 229.133 22.2526 228.235 21.5588L224.484 19.3937C223.587 18.971 222.654 18.6321 221.687 18.3769C220.734 18.1137 219.781 17.9542 218.828 17.8984C217.861 17.8346 216.914 17.9024 215.989 18.1018C215.063 18.2852 214.172 18.6241 213.316 19.1185C212.404 19.6449 211.824 20.2031 211.575 20.7933C211.327 21.3834 211.334 21.9935 211.596 22.6235C211.872 23.2455 212.363 23.8715 213.067 24.5015C213.772 25.1316 214.635 25.7416 215.657 26.3318Z" fill="#0051C9"/>
</g>
</g>
<defs>
<filter id="filter0_d_33_54530" x="88.1181" y="128.501" width="288.882" height="266.986" filterUnits="userSpaceOnUse" color-interpolation-filters="sRGB">
<feFlood flood-opacity="0" result="BackgroundImageFix"/>
<feColorMatrix in="SourceAlpha" type="matrix" values="0 0 0 0 0 0 0 0 0 0 0 0 0 0 0 0 0 0 127 0" result="hardAlpha"/>
<feOffset dx="-19" dy="42"/>
<feGaussianBlur stdDeviation="2"/>
<feComposite in2="hardAlpha" operator="out"/>
<feColorMatrix type="matrix" values="0 0 0 0 0.00527903 0 0 0 0 0.690067 0 0 0 0 0.905 0 0 0 0.14 0"/>
<feBlend mode="normal" in2="BackgroundImageFix" result="effect1_dropShadow_33_54530"/>
<feBlend mode="normal" in="SourceGraphic" in2="effect1_dropShadow_33_54530" result="shape"/>
</filter>
<filter id="filter1_d_33_54530" x="5.21152" y="6.10352" width="236.865" height="150.857" filterUnits="userSpaceOnUse" color-interpolation-filters="sRGB">
<feFlood flood-opacity="0" result="BackgroundImageFix"/>
<feColorMatrix in="SourceAlpha" type="matrix" values="0 0 0 0 0 0 0 0 0 0 0 0 0 0 0 0 0 0 127 0" result="hardAlpha"/>
<feOffset dx="-3" dy="15"/>
<feGaussianBlur stdDeviation="1"/>
<feComposite in2="hardAlpha" operator="out"/>
<feColorMatrix type="matrix" values="0 0 0 0 0.00392157 0 0 0 0 0.690196 0 0 0 0 0.905882 0 0 0 0.21 0"/>
<feBlend mode="normal" in2="BackgroundImageFix" result="effect1_dropShadow_33_54530"/>
<feBlend mode="normal" in="SourceGraphic" in2="effect1_dropShadow_33_54530" result="shape"/>
</filter>
<filter id="filter2_d_33_54530" x="9.21152" y="6.10352" width="232.865" height="136.857" filterUnits="userSpaceOnUse" color-interpolation-filters="sRGB">
<feFlood flood-opacity="0" result="BackgroundImageFix"/>
<feColorMatrix in="SourceAlpha" type="matrix" values="0 0 0 0 0 0 0 0 0 0 0 0 0 0 0 0 0 0 127 0" result="hardAlpha"/>
<feOffset dx="-1" dy="3"/>
<feComposite in2="hardAlpha" operator="out"/>
<feColorMatrix type="matrix" values="0 0 0 0 0.505882 0 0 0 0 1 0 0 0 0 0 0 0 0 1 0"/>
<feBlend mode="normal" in2="BackgroundImageFix" result="effect1_dropShadow_33_54530"/>
<feBlend mode="normal" in="SourceGraphic" in2="effect1_dropShadow_33_54530" result="shape"/>
</filter>
<linearGradient id="paint0_linear_33_54530" x1="202" y1="214.501" x2="183" y2="249.001" gradientUnits="userSpaceOnUse">
<stop stop-color="#B3DDFF" stop-opacity="0.81"/>
<stop offset="0.615" stop-color="#E9F5FF" stop-opacity="0.56"/>
<stop offset="1" stop-color="white" stop-opacity="0.61"/>
</linearGradient>
<linearGradient id="paint1_linear_33_54530" x1="260" y1="205.501" x2="285.5" y2="252.001" gradientUnits="userSpaceOnUse">
<stop stop-color="#B3DDFF" stop-opacity="0.56"/>
<stop offset="0.525" stop-color="#F4FAFF"/>
<stop offset="1" stop-color="white" stop-opacity="0.8"/>
</linearGradient>
<linearGradient id="paint2_linear_33_54530" x1="117" y1="260.501" x2="98" y2="295.001" gradientUnits="userSpaceOnUse">
<stop stop-color="#B3DDFF" stop-opacity="0.81"/>
<stop offset="0.615" stop-color="#E9F5FF" stop-opacity="0.56"/>
<stop offset="1" stop-color="white" stop-opacity="0.61"/>
</linearGradient>
<linearGradient id="paint3_linear_33_54530" x1="175" y1="251.501" x2="200.5" y2="298.001" gradientUnits="userSpaceOnUse">
<stop stop-color="#B3DDFF" stop-opacity="0.56"/>
<stop offset="0.525" stop-color="#F4FAFF"/>
<stop offset="1" stop-color="white" stop-opacity="0.8"/>
</linearGradient>
<linearGradient id="paint4_linear_33_54530" x1="33.5" y1="308.001" x2="14.5" y2="342.501" gradientUnits="userSpaceOnUse">
<stop stop-color="#B3DDFF" stop-opacity="0.81"/>
<stop offset="0.615" stop-color="#E9F5FF" stop-opacity="0.56"/>
<stop offset="1" stop-color="white" stop-opacity="0.61"/>
</linearGradient>
<linearGradient id="paint5_linear_33_54530" x1="91.5" y1="299.001" x2="117" y2="345.501" gradientUnits="userSpaceOnUse">
<stop stop-color="#B3DDFF" stop-opacity="0.56"/>
<stop offset="0.525" stop-color="#F4FAFF"/>
<stop offset="1" stop-color="white" stop-opacity="0.8"/>
</linearGradient>
<linearGradient id="paint6_linear_33_54530" x1="346" y1="174.002" x2="126" y2="347.002" gradientUnits="userSpaceOnUse">
<stop stop-color="#00C2ED"/>
<stop offset="1" stop-color="#ADFF00"/>
</linearGradient>
<linearGradient id="paint7_linear_33_54530" x1="194.5" y1="200.501" x2="206.5" y2="128.501" gradientUnits="userSpaceOnUse">
<stop stop-color="#003482"/>
<stop offset="1" stop-color="#1065E2"/>
</linearGradient>
<linearGradient id="paint8_linear_33_54530" x1="284" y1="143.001" x2="226" y2="185.501" gradientUnits="userSpaceOnUse">
<stop stop-color="#4B93FF"/>
<stop offset="1" stop-color="#1065E2"/>
</linearGradient>
<linearGradient id="paint9_linear_33_54530" x1="271.5" y1="84.0015" x2="176" y2="147.501" gradientUnits="userSpaceOnUse">
<stop stop-color="#4B93FF"/>
<stop offset="1" stop-color="#1065E2"/>
</linearGradient>
<linearGradient id="paint10_linear_33_54530" x1="112" y1="258.501" x2="113.5" y2="186.501" gradientUnits="userSpaceOnUse">
<stop stop-color="#003482"/>
<stop offset="1" stop-color="#1065E2"/>
</linearGradient>
<linearGradient id="paint11_linear_33_54530" x1="194" y1="202.001" x2="141" y2="232.501" gradientUnits="userSpaceOnUse">
<stop stop-color="#4B93FF"/>
<stop offset="1" stop-color="#1065E2"/>
</linearGradient>
<linearGradient id="paint12_linear_33_54530" x1="189" y1="148.501" x2="100" y2="209.001" gradientUnits="userSpaceOnUse">
<stop stop-color="#4B93FF"/>
<stop offset="1" stop-color="#1065E2"/>
</linearGradient>
<linearGradient id="paint13_linear_33_54530" x1="23.5" y1="319.001" x2="47.5" y2="261.001" gradientUnits="userSpaceOnUse">
<stop stop-color="#003482"/>
<stop offset="0.668832" stop-color="#1065E2" stop-opacity="0.99"/>
</linearGradient>
<linearGradient id="paint14_linear_33_54530" x1="111.5" y1="258.001" x2="60.5" y2="298.001" gradientUnits="userSpaceOnUse">
<stop stop-color="#4B93FF"/>
<stop offset="1" stop-color="#1065E2"/>
</linearGradient>
<linearGradient id="paint15_linear_33_54530" x1="114" y1="218.001" x2="13.5" y2="272.501" gradientUnits="userSpaceOnUse">
<stop stop-color="#4B93FF"/>
<stop offset="1" stop-color="#1065E2"/>
</linearGradient>
</defs>
</svg>
